<svg width="24" height="24" viewBox="0 0 24 24" fill="none" xmlns="http://www.w3.org/2000/svg">
<path d="M3.99985 14.8988C3.25689 14.1397 2.69642 13.2215 2.36089 12.2137C2.02535 11.2059 1.92356 10.135 2.06321 9.08208C2.20287 8.02913 2.58031 7.02178 3.16695 6.13631C3.75358 5.25085 4.53403 4.51049 5.44918 3.97133C6.36433 3.43216 7.39018 3.10833 8.44902 3.02435C9.50786 2.94038 10.5719 3.09846 11.5606 3.48664C12.5493 3.87481 13.4367 4.48289 14.1556 5.26481C14.8745 6.04674 15.406 6.98201 15.7099 7.99978H17.4999C18.4654 7.99967 19.4053 8.3101 20.1808 8.88522C20.9564 9.46033 21.5264 10.2696 21.8066 11.1936C22.0869 12.1175 22.0625 13.1071 21.7372 14.0162C21.4118 14.9252 20.8027 15.7055 19.9999 16.2418" stroke="white" stroke-width="1" stroke-linecap="round" stroke-linejoin="round"/>
<path d="M16 14V20" stroke="white" stroke-width="1" stroke-linecap="round" stroke-linejoin="round"/>
<path d="M8 14V20" stroke="white" stroke-width="1" stroke-linecap="round" stroke-linejoin="round"/>
<path d="M12 16V22" stroke="white" stroke-width="1" stroke-linecap="round" stroke-linejoin="round"/>
</svg>
