<svg width="24" height="24" viewBox="0 0 24 24" fill="none" xmlns="http://www.w3.org/2000/svg">
<path d="M5.99985 16.3258C4.94608 15.8254 4.03407 15.0696 3.34671 14.1271C2.65934 13.1846 2.21843 12.0852 2.06403 10.9289C1.90963 9.77266 2.04665 8.59614 2.46263 7.50629C2.8786 6.41644 3.56035 5.44783 4.44591 4.6885C5.33147 3.92916 6.39276 3.40317 7.53331 3.15835C8.67387 2.91352 9.85752 2.95761 10.9767 3.28662C12.0959 3.61562 13.1151 4.21911 13.9417 5.04223C14.7683 5.86534 15.3761 6.88199 15.7098 7.99977H17.4998C18.6513 7.99776 19.7598 8.43724 20.597 9.22776C21.4343 10.0183 21.9367 11.0997 22.0007 12.2494C22.0648 13.3991 21.6857 14.5296 20.9414 15.4083C20.1972 16.2869 19.1444 16.8468 17.9998 16.9728" stroke="white" stroke-width="1" stroke-linecap="round" stroke-linejoin="round"/>
<path d="M13 12L10 17H14L11 22" stroke="white" stroke-width="1" stroke-linecap="round" stroke-linejoin="round"/>
</svg>
